<svg viewBox="0 0 39.2119 39.2119" xmlns="http://www.w3.org/2000/svg" xmlns:xlink="http://www.w3.org/1999/xlink" width="39.211914" height="39.211914" fill="none" customFrame="#000000">
	<path id="Star 7" d="M22.319 12.8265L18.1059 1.44077L17.5728 0L17.0396 1.44077L12.8265 12.8265L1.44077 17.0396L3.55271e-15 17.5728L1.44077 18.1059L12.8265 22.319L17.0396 33.7048L17.5728 35.1455L18.1059 33.7048L22.319 22.319L33.7048 18.1059L35.1455 17.5728L33.7048 17.0396L22.319 12.8265ZM32.264 17.5728L21.972 13.7644L21.5407 13.6048L17.5728 2.88154L13.6048 13.6048L2.88154 17.5728L13.6048 21.5407L17.5728 32.264L21.5407 21.5407L32.264 17.5728Z" fill="rgb(188,236,48)" fill-rule="evenodd" transform="matrix(0.992365,0.123334,-0.123334,0.992365,4.33447,0)" />
</svg>
